<svg width="20" height="20" viewBox="0 0 20 20" fill="none" xmlns="http://www.w3.org/2000/svg">
<g clip-path="url(#clip0_133_739)">
<path d="M16.5724 2.06214L15.4473 0.473776C15.0893 -0.0318201 14.3866 -0.151784 13.8809 0.206335L12.929 0.880617C11.6922 1.75655 10.2357 2.20377 8.71504 2.17488C8.21293 2.1666 7.72873 2.31408 7.31717 2.60562L7.3171 2.60568C6.80625 2.96755 6.46685 3.50676 6.36146 4.12379C6.33231 4.29431 6.32272 4.4651 6.33073 4.63385C4.55622 5.02388 3.22131 6.64691 3.22131 8.58485C3.22131 9.33202 3.42047 10.032 3.76598 10.633C3.42618 11.0398 3.22131 11.5629 3.22131 12.1331C3.22131 12.6374 3.3791 13.1179 3.67773 13.5229C4.56732 14.729 5.05722 16.2159 5.05722 17.7097V18.8764C5.05722 19.496 5.5613 20 6.18089 20H8.12737C8.74702 20 9.25104 19.4959 9.25104 18.8764V17.7096C9.25104 16.1943 9.72807 14.7465 10.6305 13.5228C10.9292 13.1178 11.0869 12.6373 11.0869 12.1331C11.0869 11.5629 10.882 11.0397 10.5423 10.633C10.7584 10.2571 10.9175 9.84286 11.006 9.40214C11.3104 9.33609 11.6015 9.20975 11.8634 9.02426C12.275 8.73279 12.5759 8.32621 12.7336 7.84858C13.2038 6.4255 14.134 5.1663 15.3529 4.30298L16.305 3.6287C16.8106 3.27038 16.9305 2.56767 16.5724 2.06214ZM6.58543 5.58647C6.63619 5.68503 6.69397 5.78083 6.75917 5.87289C7.10206 6.35694 7.61698 6.68781 8.18574 6.80975C8.11213 7.38659 8.25324 7.98234 8.59606 8.46633C8.93442 8.94402 9.42787 9.27174 9.99505 9.3984C9.93694 9.61607 9.85651 9.82422 9.75585 10.0196C9.44914 9.87208 9.10566 9.78928 8.74315 9.78928C8.15002 9.78928 7.58231 10.0184 7.15413 10.412C6.72595 10.0184 6.15817 9.78928 5.56505 9.78928C5.20253 9.78928 4.85905 9.87208 4.55241 10.0196C4.33179 9.59151 4.20624 9.10312 4.20624 8.58472C4.20624 7.10142 5.23122 5.86205 6.58543 5.58647ZM9.83779 12.9382C8.80959 14.3324 8.26605 15.9823 8.26605 17.7096V18.8763C8.26605 18.9528 8.2038 19.015 8.1273 19.015H6.18089C6.10439 19.015 6.04215 18.9528 6.04215 18.8763V17.7096C6.04215 16.0069 5.48395 14.3124 4.4704 12.9383C4.29758 12.7039 4.20624 12.4254 4.20624 12.1331C4.20624 11.3838 4.81578 10.7743 5.56505 10.7743C6.0472 10.7743 6.48333 11.0218 6.73173 11.4363C6.82063 11.5848 6.98111 11.6757 7.15419 11.6757C7.32728 11.6757 7.48769 11.5848 7.57666 11.4363C7.825 11.0218 8.26112 10.7743 8.74328 10.7743C9.49254 10.7743 10.1021 11.3838 10.1021 12.1331C10.102 12.4254 10.0106 12.7038 9.83779 12.9382ZM15.7356 2.82493L14.7836 3.49921C13.3942 4.48328 12.334 5.91819 11.7983 7.53964C11.7071 7.81602 11.5327 8.05148 11.294 8.22049C10.9978 8.43035 10.6378 8.51216 10.2799 8.4511C9.9221 8.39003 9.60955 8.19324 9.39976 7.89704C9.12116 7.5036 9.07099 7.00463 9.26568 6.5624C9.33548 6.40402 9.31683 6.22063 9.21683 6.07939C9.12411 5.94846 8.97395 5.87157 8.81504 5.87157C8.80257 5.87157 8.78996 5.87203 8.77735 5.87295C8.29599 5.91005 7.84161 5.69698 7.56294 5.3036C7.12983 4.69215 7.27495 3.84236 7.88639 3.40925C8.12507 3.24024 8.40249 3.15298 8.69613 3.15954C10.4275 3.19336 12.0886 2.68251 13.4982 1.68419L14.4501 1.00997C14.5127 0.965714 14.5995 0.98062 14.6436 1.04293L15.7687 2.63129C15.8129 2.69387 15.798 2.78067 15.7356 2.82493Z" fill="white"/>
<path d="M8.98813 3.50537C8.35068 3.50537 7.83215 4.02397 7.83215 4.66141C7.83215 4.93345 8.05258 5.15388 8.32462 5.15388C8.59665 5.15388 8.81708 4.93345 8.81708 4.66141C8.81708 4.56699 8.89384 4.4903 8.98813 4.4903C9.26017 4.4903 9.48059 4.26987 9.48059 3.99783C9.48059 3.7258 9.2601 3.50537 8.98813 3.50537Z" fill="white"/>
</g>
<defs>
<clipPath id="clip0_133_739">
<rect width="20" height="20" fill="white"/>
</clipPath>
</defs>
</svg>
