<svg width="18" height="18" viewBox="0 0 18 18" fill="none" xmlns="http://www.w3.org/2000/svg">
<g clip-path="url(#clip0_133_705)">
<path d="M9.45293 1.803C8.95504 1.803 8.55143 1.39939 8.55143 0.901502C8.55143 0.403616 8.95504 0 9.45293 0C9.95081 0 10.3544 0.403616 10.3544 0.901502C10.3544 1.39939 9.95081 1.803 9.45293 1.803Z" fill="white"/>
<path d="M4.67656 1.803C4.17868 1.803 3.77506 1.39939 3.77506 0.901502C3.77506 0.403616 4.17868 0 4.67656 0C5.17445 0 5.57806 0.403616 5.57806 0.901502C5.57806 1.39939 5.17445 1.803 4.67656 1.803Z" fill="white"/>
<path d="M1.99057 1.72159C2.4486 0.928274 3.26892 0.454679 4.185 0.454679V1.34876C3.59213 1.34876 3.06132 1.65525 2.76484 2.16863C2.46836 2.6821 2.46836 3.29509 2.76475 3.80856L5.63672 8.78287C5.9331 9.29625 6.46401 9.60274 7.05688 9.60283C7.64974 9.60283 8.18065 9.29634 8.47712 8.78287L11.349 3.80847C11.6454 3.29509 11.6454 2.68201 11.349 2.16863C11.0526 1.65525 10.5216 1.34867 9.92875 1.34867V0.45459C10.8448 0.45459 11.6652 0.928185 12.1233 1.72159C12.5813 2.515 12.5813 3.46219 12.1233 4.25551L9.2514 9.22982C8.86945 9.89135 8.23519 10.3294 7.50392 10.4571V12.8561C7.50392 15.1996 8.88733 17.1061 10.5878 17.1061C12.2882 17.1061 13.6716 15.1996 13.6716 12.8561V9.99971C12.6532 9.7921 11.8845 8.88944 11.8845 7.81046C11.8845 6.57851 12.8867 5.57624 14.1187 5.57624C15.3506 5.57624 16.3529 6.57851 16.3529 7.81046C16.3529 8.88935 15.5842 9.79202 14.5657 9.99971V12.8561C14.5657 15.6926 12.7812 18.0002 10.5878 18.0002C8.39442 18.0002 6.60993 15.6926 6.60993 12.8561V10.4571C5.87875 10.3294 5.24439 9.89135 4.86253 9.22982L1.99057 4.25551C1.53244 3.46219 1.53244 2.51491 1.99057 1.72159Z" fill="white"/>
</g>
<defs>
<clipPath id="clip0_133_705">
<rect width="18" height="18" fill="white" transform="matrix(-1 0 0 1 18 0)"/>
</clipPath>
</defs>
</svg>
