<svg width="18" height="18" viewBox="0 0 18 18" fill="none" xmlns="http://www.w3.org/2000/svg">
<g clip-path="url(#clip0_133_774)">
<path d="M13.8211 3.60909C13.5974 3.73231 13.5676 4.10803 13.7544 4.44809C13.9412 4.78851 14.2748 4.96482 14.4985 4.84163C14.7224 4.71908 14.7525 4.34333 14.5651 4.00263C14.3786 3.66225 14.0453 3.4859 13.8211 3.60909Z" fill="white"/>
<path d="M5.8216 11.5695C5.65637 11.2061 5.55435 10.8034 5.52918 10.3106C5.52397 10.2107 5.52211 10.1063 5.52366 9.99848C5.5252 9.89062 5.43886 9.80213 5.33103 9.8003C5.22353 9.79939 5.13472 9.88541 5.13321 9.99352C5.13198 10.1094 5.13349 10.2215 5.13933 10.3308C5.16633 10.8663 5.28002 11.3225 5.46649 11.7314C5.65328 12.1397 5.91101 12.4988 6.22007 12.8475C6.40042 13.0509 6.47906 13.2887 6.49165 13.5268C6.50455 13.7698 6.4425 14.0109 6.35127 14.1814C6.30089 14.2763 6.33682 14.3943 6.43209 14.445C6.52702 14.4957 6.6456 14.4598 6.69598 14.3645C6.82166 14.1283 6.89721 13.8263 6.88153 13.5068C6.86617 13.1959 6.75803 12.8647 6.51228 12.5882C6.21947 12.2583 5.98751 11.9321 5.8216 11.5695Z" fill="white"/>
<path d="M8.79605 12.9223C9.06886 12.9082 9.2836 12.8121 9.42862 12.7196C9.57483 12.6277 9.65348 12.5396 9.66237 12.5294C9.73367 12.4483 9.72601 12.3251 9.64458 12.2539C9.56439 12.1832 9.44152 12.1906 9.37054 12.2705H9.36991L9.36776 12.2732C9.35546 12.2864 9.29281 12.3491 9.19114 12.4078C9.08852 12.4677 8.94933 12.5233 8.7764 12.5322C8.66119 12.5377 8.53066 12.5236 8.3804 12.4723C8.11803 12.3829 7.88885 12.2198 7.69197 12.0198C7.39704 11.7193 7.17894 11.3368 7.03821 11.0302C6.96754 10.877 6.91625 10.7424 6.88278 10.6478C6.8659 10.6005 6.8536 10.563 6.8459 10.5375C6.84189 10.5249 6.83883 10.5154 6.83732 10.5092L6.83514 10.5025L6.83454 10.5006C6.80537 10.3971 6.69751 10.3369 6.59365 10.3664C6.48984 10.3949 6.4299 10.5031 6.45879 10.6069V10.6066C6.46189 10.6158 6.58476 11.0521 6.86464 11.5485C7.00505 11.7968 7.18505 12.0603 7.41392 12.2935C7.64156 12.5255 7.91989 12.7277 8.25415 12.8416C8.44952 12.9088 8.63261 12.9303 8.79605 12.9223Z" fill="white"/>
<path d="M8.36779 14.7954C8.27624 14.7174 8.19419 14.6544 8.1134 14.6077C8.07223 14.5844 8.03166 14.5653 7.98807 14.5506C7.94504 14.5364 7.89712 14.5272 7.84491 14.5297C7.80835 14.5315 7.76996 14.5398 7.73399 14.5561C7.6698 14.5838 7.62033 14.6341 7.58964 14.6852C7.54324 14.7632 7.52636 14.8424 7.5156 14.9315C7.5058 15.0209 7.50516 15.1217 7.51128 15.2388C7.51652 15.3463 7.60838 15.4289 7.71621 15.4237C7.82371 15.4179 7.90668 15.3266 7.90116 15.2188C7.89716 15.1398 7.89684 15.0729 7.89993 15.0203C7.90176 14.9874 7.90514 14.9623 7.90883 14.9407C7.92018 14.9472 7.93312 14.9543 7.94722 14.9635C8.02432 15.0133 8.13583 15.106 8.27069 15.2357C8.40646 15.365 8.56776 15.5318 8.75486 15.7315C8.82855 15.8095 8.95237 15.8142 9.0307 15.7401C9.10903 15.6664 9.11367 15.5429 9.03959 15.4642C8.76991 15.1763 8.54997 14.9533 8.36779 14.7954Z" fill="white"/>
<path d="M10.0771 13.3013C10.0089 13.3898 9.93581 13.4361 9.84946 13.4684C9.76344 13.5 9.66328 13.5129 9.55946 13.5185C9.48697 13.5218 9.41293 13.5218 9.33952 13.5259C9.29435 13.528 9.24949 13.5317 9.2028 13.54C9.16838 13.5467 9.13182 13.5563 9.09434 13.5725C9.06608 13.5845 9.03686 13.6011 9.00955 13.6239C8.96778 13.6571 8.93185 13.7056 8.91248 13.7587C8.89254 13.8119 8.88699 13.8662 8.88977 13.9179C8.89434 14.0011 8.91895 14.0758 8.95087 14.1461C9.00926 14.269 9.09434 14.3814 9.19113 14.4908C9.33551 14.6543 9.5063 14.8079 9.65255 14.9307C9.72568 14.9928 9.79174 15.0463 9.84454 15.0889C9.87126 15.1101 9.89432 15.1286 9.91215 15.1439C9.93029 15.1584 9.94379 15.17 9.94931 15.175C10.0292 15.2465 10.1524 15.2404 10.2249 15.1605C10.2971 15.08 10.2906 14.9572 10.2108 14.8846C10.188 14.8644 10.1613 14.8429 10.1251 14.814C10.0633 14.7636 9.97821 14.6954 9.88451 14.6156C9.7441 14.4967 9.58526 14.3517 9.46577 14.2131C9.40649 14.1437 9.35671 14.0767 9.32444 14.0196C9.30201 13.9796 9.28974 13.9461 9.28359 13.9228C9.30292 13.9194 9.32813 13.9173 9.35946 13.9157C9.41845 13.9127 9.49463 13.9124 9.57946 13.9078C9.70015 13.9016 9.84029 13.8875 9.98372 13.8349C10.1272 13.7833 10.2731 13.6887 10.3874 13.5379C10.4525 13.4522 10.4363 13.3296 10.3505 13.2647C10.2648 13.1993 10.1422 13.2156 10.0771 13.3013Z" fill="white"/>
<path d="M9.21971 0.679238L9.22006 0.679941L9.21936 0.678223L9.21971 0.679238Z" fill="white"/>
<path d="M15.7307 3.74223C15.578 3.35854 15.3381 3.00708 15.0339 2.73276C14.8816 2.59603 14.7114 2.47805 14.5224 2.39206C14.335 2.30603 14.1255 2.25136 13.904 2.25076H13.8973C13.6632 2.25076 13.4229 2.31556 13.2066 2.44799C12.8908 2.64093 12.5879 2.84554 12.297 3.05996C12.3317 2.98806 12.3735 2.90759 12.4227 2.81973C12.5099 2.66058 12.615 2.47562 12.7059 2.25969L12.7084 2.25537L12.7102 2.2508C12.7505 2.1537 12.7705 2.05111 12.7711 1.94603C12.7708 1.79458 12.729 1.66063 12.6734 1.54912C12.5772 1.35864 12.4393 1.21365 12.2928 1.08955C12.071 0.903998 11.8086 0.754092 11.5407 0.641943C11.4065 0.586045 11.2701 0.539638 11.134 0.506451L11.13 0.50522L11.1337 0.505853C11.1318 0.505537 11.1303 0.505537 11.1285 0.504939C10.9945 0.472349 10.8588 0.451185 10.7171 0.450869C10.609 0.451185 10.4889 0.463771 10.3632 0.510177C10.3 0.534119 10.2336 0.567939 10.1706 0.615857C10.1067 0.664408 10.0477 0.726142 10.001 0.800181C9.96661 0.855482 9.93957 0.907689 9.91285 0.960564C9.86648 1.05303 9.81821 1.15473 9.76572 1.25612L9.76386 1.25981L9.76541 1.25644C9.69014 1.40392 9.59736 1.55414 9.52392 1.63585C9.40351 1.76856 9.28338 0.791638 9.2201 0.680123C9.15221 0.55908 9.0594 0.458006 8.95284 0.369552C8.77126 0.219611 8.56486 0.138506 8.36299 0.088443C7.65086 -0.0857562 6.61372 -0.0488773 6.16305 0.626052C6.16291 0.626052 6.16291 0.626369 6.16291 0.626369L6.16245 0.627002L6.16273 0.626685C6.0715 0.770756 6.01684 0.918517 5.97996 1.05615C5.94368 1.19347 5.92402 1.32528 5.92374 1.45402C5.92374 1.54433 5.93018 1.6279 5.93478 1.71881C5.94586 1.91667 5.95813 2.11053 5.91727 2.30128C5.70651 2.01898 5.57042 1.68809 5.37534 1.39562C5.32127 1.31329 5.25461 1.25219 5.18796 1.20546C5.09022 1.13821 4.98736 1.09859 4.88751 1.0737C4.78739 1.04853 4.68385 1.03773 4.57754 1.03742C4.39381 1.03773 4.19659 1.07124 3.99384 1.1419C3.79109 1.21288 3.58125 1.3219 3.37759 1.47462C3.14257 1.65124 2.96622 1.83406 2.84335 2.02974C2.72076 2.22577 2.65502 2.43741 2.65502 2.64845C2.65534 2.80947 2.69496 2.95811 2.75919 3.08347C3.05991 3.66777 3.40986 4.31415 3.40895 4.99063V4.99337C3.40863 5.19644 3.37024 5.35893 3.29342 5.49076L3.21724 5.62105L3.25261 5.64162C2.77578 6.40964 2.37553 7.40594 2.17029 8.74015C2.12638 9.02277 2.10577 9.31246 2.10577 9.60616C2.10609 10.5471 2.31836 11.5312 2.69471 12.4838C3.26059 13.9114 4.19606 15.2733 5.392 16.2953C5.99079 16.8056 6.65527 17.2311 7.37415 17.5297C8.08473 17.8253 8.84874 17.9955 9.6463 18H9.66964C10.1148 18 10.5691 17.9472 11.0281 17.836L11.033 17.8348C11.033 17.8348 11.0398 17.8329 11.0413 17.8326C11.6222 17.6735 12.1608 17.3392 12.6455 16.8916C13.3721 16.2179 13.9865 15.2815 14.428 14.1989C14.8688 13.1154 15.1346 11.8832 15.1349 10.6138C15.1349 9.29154 14.8396 7.92878 14.142 6.68179C14.1905 6.64122 14.2384 6.60037 14.2879 6.56106C14.6476 6.27292 15.0249 6.01305 15.3622 5.73559C15.548 5.58199 15.6863 5.3906 15.773 5.18508C15.8596 4.97956 15.8946 4.76451 15.8946 4.55561C15.8941 4.27341 15.8315 3.99905 15.7307 3.74223ZM3.56796 2.48234C3.61985 2.39969 3.71818 2.28694 3.8902 2.15823C4.02538 2.05656 4.15686 1.9899 4.27513 1.9487C4.39374 1.90753 4.49907 1.89185 4.57743 1.89217C4.6275 1.89185 4.66529 1.89829 4.68677 1.90447C4.75715 2.01476 4.83485 2.1524 4.91595 2.30107C5.05236 2.54931 5.19583 2.82117 5.35868 3.05131C5.42902 3.14992 5.50303 3.24083 5.59088 3.32226C5.39584 3.52841 5.14609 3.7468 4.86863 3.99965C4.66775 4.18246 4.45302 4.3858 4.23579 4.61622C4.18632 4.2611 4.07695 3.92072 3.95749 3.61905C3.87698 3.41567 3.79099 3.23008 3.71294 3.07159C3.63521 2.91371 3.5655 2.78219 3.51972 2.6931C3.5142 2.68206 3.50956 2.66884 3.50956 2.64546C3.50988 2.61628 3.51663 2.5659 3.56796 2.48234ZM14.9851 4.85307C14.9485 4.93786 14.8975 5.00976 14.818 5.0761C14.4241 5.40203 13.8813 5.75721 13.3636 6.22289C13.1047 6.45605 12.8518 6.71842 12.6282 7.02256C12.4045 7.32638 12.2107 7.67295 12.0724 8.06923C12.0082 8.25324 12.1047 8.45352 12.2884 8.51772C12.4715 8.58223 12.6724 8.48548 12.7369 8.30175C12.8503 7.97765 13.0079 7.69503 13.1953 7.43941C13.2684 7.33988 13.3464 7.24464 13.4278 7.15309C14.0241 8.24364 14.2798 9.43751 14.28 10.6159C14.2813 12.1446 13.8472 13.6432 13.1873 14.8069C12.8577 15.3888 12.4727 15.8868 12.0648 16.2637C11.6586 16.64 11.2319 16.8934 10.8206 17.0065C10.4301 17.1008 10.0461 17.1448 9.66947 17.1448C8.75983 17.1448 7.89007 16.888 7.08857 16.4431C5.88799 15.7765 4.84779 14.6834 4.11541 13.4441C2.82296 11.2623 2.58091 8.60557 3.83033 6.3445C4.35686 5.39338 5.00539 4.82445 5.57956 4.30526C5.86651 4.04535 6.13595 3.79897 6.35465 3.51175C6.46399 3.36764 6.55986 3.21341 6.63295 3.04326C6.70671 2.87306 6.75709 2.68811 6.77611 2.48997C6.79393 2.31608 6.79945 2.16062 6.79945 2.02299C6.79945 1.45711 6.6603 1.02089 7.34813 0.906916C7.47315 0.885717 7.6111 0.874045 7.74568 0.874045C7.89559 0.873728 8.0412 0.889092 8.15884 0.917955C8.2771 0.946537 8.36439 0.990447 8.40553 1.0261C8.43903 1.05373 8.45742 1.07401 8.46663 1.08632C8.47957 1.10474 8.47584 1.10045 8.47893 1.10998C8.48139 1.11887 8.48449 1.14777 8.48414 1.20427C8.48414 1.22118 8.48414 1.2396 8.48414 1.2608C8.48414 1.32837 8.48938 1.40765 8.50165 1.49856C8.57139 2.00977 8.86632 2.5652 9.45983 2.56278C9.57535 2.56337 9.68592 2.53634 9.78116 2.49394C9.94948 2.41899 10.0745 2.30469 10.1784 2.18488C10.3335 2.00425 10.4456 1.80119 10.5372 1.62484C10.5821 1.53667 10.6216 1.45497 10.6539 1.38922C10.6696 1.35727 10.684 1.329 10.6963 1.30597L10.7178 1.30569C10.7934 1.30446 10.9289 1.32872 11.0733 1.37819C11.2914 1.45131 11.535 1.5791 11.7024 1.71059C11.786 1.7757 11.8502 1.84179 11.8837 1.88999C11.8996 1.91242 11.9086 1.92993 11.9125 1.94037C11.825 2.14617 11.6996 2.35296 11.5816 2.57845C11.3568 3.00852 11.252 3.47424 11.4735 3.92522C10.8779 4.46195 10.3531 5.04625 9.90983 5.66679C9.06102 6.85634 8.50864 8.17948 8.324 9.54931C8.29851 9.74193 8.43337 9.91919 8.62631 9.94471C8.81861 9.97083 8.99587 9.83597 9.02199 9.64335C9.18941 8.3985 9.69327 7.18196 10.4831 6.07601C11.2723 4.96975 12.3482 3.97469 13.6522 3.17752C13.7392 3.12499 13.816 3.10594 13.9011 3.10531C14.0077 3.10531 14.1324 3.14124 14.2652 3.22111C14.4636 3.3391 14.6676 3.5532 14.8111 3.80147C14.957 4.04908 15.0412 4.32737 15.0397 4.55533C15.0398 4.66846 15.0207 4.76799 14.9851 4.85307Z" fill="white"/>
<path d="M15.0397 2.73736L15.0345 2.73291C15.0345 2.73291 15.0349 2.73357 15.0352 2.73357L15.0397 2.73736Z" fill="white"/>
</g>
<defs>
<clipPath id="clip0_133_774">
<rect width="18" height="18" fill="white"/>
</clipPath>
</defs>
</svg>
