<svg width="20" height="20" viewBox="0 0 20 20" fill="none" xmlns="http://www.w3.org/2000/svg">
<path d="M15.0978 6.11638C14.3424 5.52684 13.5785 5.32341 12.9027 5.3277C12.3858 5.32837 11.9236 5.43341 11.5146 5.52618C11.1052 5.62134 10.7477 5.70122 10.4513 5.69993C10.1554 5.70126 9.79802 5.62134 9.38849 5.52618C8.97943 5.43337 8.51724 5.32837 8.00052 5.3277C7.32463 5.32341 6.56068 5.52653 5.80525 6.11669C5.24431 6.54899 4.83709 7.11575 4.58064 7.76309C4.32318 8.41106 4.21021 9.13763 4.2099 9.91907C4.21052 11.1159 4.47412 12.4473 4.93201 13.8608C5.40482 15.3193 5.81002 16.3916 6.10974 17.1714C6.2592 17.5608 6.3822 17.8772 6.4724 18.1272C6.56271 18.3756 6.61888 18.5612 6.63756 18.6645C6.71123 19.0641 6.89584 19.404 7.1592 19.6398C7.42162 19.8756 7.75799 20.0007 8.09435 20.0001C8.44181 20.0004 8.7876 19.8687 9.06369 19.6259C9.34095 19.3832 9.54658 19.0327 9.64564 18.6087C9.67455 18.4842 9.69291 18.3534 9.71123 18.2061C9.74256 17.9498 9.77033 17.6466 9.80998 17.3349C9.86795 16.8688 9.96076 16.3814 10.099 16.0673C10.1658 15.9097 10.2423 15.8024 10.2994 15.7529C10.3597 15.7033 10.3807 15.6954 10.4513 15.6914C10.5069 15.6931 10.529 15.7013 10.5663 15.7238C10.6289 15.7601 10.7362 15.8899 10.8237 16.1131C10.9585 16.4438 11.0457 16.9372 11.1015 17.4015C11.1303 17.634 11.1527 17.8606 11.1752 18.064C11.1988 18.2691 11.2201 18.4461 11.2576 18.6086C11.3568 19.0327 11.5618 19.3831 11.8392 19.6259C12.1153 19.8693 12.4616 20.0004 12.8089 20.0001C13.1453 20.0007 13.4816 19.8756 13.744 19.6394C14.0076 19.404 14.1917 19.0641 14.2657 18.6645C14.2845 18.5611 14.3406 18.3755 14.4308 18.1272C14.7025 17.3735 15.2628 16.0461 15.9712 13.8608C16.4293 12.4475 16.6927 11.1159 16.693 9.91903C16.693 9.13794 16.58 8.41102 16.3226 7.76305C16.0657 7.11575 15.6585 6.54872 15.0978 6.11638ZM15.0234 13.5537C14.5576 14.99 14.1609 16.0399 13.8633 16.8144C13.7144 17.2021 13.5905 17.5205 13.4936 17.7887C13.3969 18.0582 13.3259 18.2745 13.2866 18.4809C13.245 18.6976 13.162 18.8224 13.0789 18.8974C12.9947 18.9724 12.9048 19.0028 12.8087 19.0041C12.7095 19.0034 12.6016 18.9688 12.4961 18.8773C12.3917 18.7851 12.2871 18.6315 12.2274 18.3806C12.2141 18.3244 12.1967 18.2167 12.1807 18.085C12.1523 17.8525 12.1237 17.5417 12.0815 17.2088C12.0156 16.7068 11.9254 16.1552 11.7193 15.6724C11.6141 15.4313 11.4779 15.2001 11.269 15.0112C11.0636 14.822 10.7656 14.6915 10.4512 14.6954C10.2133 14.6941 9.98045 14.7661 9.79533 14.8874C9.46888 15.1034 9.28705 15.4188 9.15494 15.7418C8.96041 16.2306 8.87506 16.7837 8.81299 17.2798C8.78228 17.5272 8.75947 17.759 8.73771 17.9532C8.71638 18.1461 8.69396 18.306 8.6756 18.3806C8.61615 18.6316 8.51127 18.7849 8.40689 18.8767C8.30092 18.9688 8.19357 19.0035 8.09431 19.0035C7.99791 19.0029 7.90838 18.9718 7.82416 18.8975C7.74111 18.8225 7.65802 18.6977 7.61642 18.4814C7.57713 18.2746 7.50611 18.0583 7.40951 17.7888C7.12017 16.9882 6.57904 15.7104 5.8797 13.5538C5.44322 12.2093 5.20564 10.9681 5.20642 9.91919C5.20595 9.23388 5.30666 8.63247 5.5065 8.13141C5.70713 7.62977 6.00092 7.22548 6.41439 6.90516C7.01912 6.44278 7.50611 6.32852 8.00052 6.32423C8.37803 6.32388 8.76279 6.40446 9.16619 6.49763C9.56963 6.58876 9.99072 6.69446 10.4513 6.6961C10.912 6.69446 11.3331 6.58876 11.7365 6.49763C12.1403 6.4045 12.525 6.32388 12.9027 6.32423C13.3966 6.32852 13.8834 6.44313 14.4886 6.90516C14.9021 7.22548 15.1959 7.62942 15.3965 8.13141C15.5963 8.63243 15.6967 9.23384 15.6967 9.91919C15.6975 10.9683 15.4598 12.2098 15.0234 13.5537Z" fill="white"/>
<path d="M18.0143 2.32938L16.3114 1.8782C16.2668 1.86828 16.2305 1.83262 16.2209 1.7877L15.7718 0.0848828C15.7598 0.0353516 15.7159 0 15.6648 0C15.6136 0 15.5696 0.0353516 15.5577 0.0848828L15.1089 1.7877C15.0987 1.83262 15.0627 1.86828 15.0181 1.8782L13.3152 2.32938C13.2654 2.3393 13.23 2.38352 13.23 2.43473C13.23 2.48594 13.2654 2.53016 13.3152 2.53973L15.0181 2.99121C15.0627 3.00047 15.0986 3.0368 15.1089 3.08172L15.5577 4.78426C15.5696 4.8341 15.6136 4.86945 15.6648 4.86945C15.7159 4.86945 15.7598 4.8341 15.7718 4.78426L16.2209 3.08172C16.2305 3.0368 16.2668 3.00047 16.3114 2.99121L18.0143 2.53973C18.0641 2.53016 18.0995 2.4859 18.0995 2.43473C18.0995 2.38352 18.0641 2.3393 18.0143 2.32938Z" fill="white"/>
<path d="M10.4969 9.99002L8.94188 9.57787C8.9011 9.56896 8.86805 9.53623 8.8593 9.49529L8.44911 7.94041C8.43821 7.89518 8.39809 7.86279 8.35137 7.86279C8.30461 7.86279 8.2645 7.89518 8.2536 7.94041L7.84375 9.49529C7.83454 9.53623 7.80165 9.56896 7.76086 9.57787L6.20579 9.99002C6.16024 9.99896 6.12805 10.0396 6.12805 10.0862C6.12805 10.1331 6.16024 10.1733 6.20579 10.1822L7.76086 10.5944C7.80165 10.603 7.83454 10.636 7.84375 10.677L8.2536 12.2319C8.2645 12.2774 8.30461 12.3095 8.35137 12.3095C8.39809 12.3095 8.43821 12.2774 8.44911 12.2319L8.8593 10.677C8.86805 10.636 8.9011 10.603 8.94188 10.5944L10.4969 10.1822C10.5425 10.1733 10.5747 10.133 10.5747 10.0862C10.5747 10.0396 10.5425 9.99896 10.4969 9.99002Z" fill="white"/>
<path d="M4.28639 5.10613L5.60499 4.75672C5.64362 4.7491 5.67085 4.71512 5.67085 4.67516C5.67085 4.63586 5.64358 4.60117 5.60499 4.59359L4.28639 4.24418C4.2519 4.23656 4.22382 4.20883 4.21639 4.17418L3.86862 2.85574C3.8594 2.81742 3.82538 2.79004 3.78573 2.79004C3.74612 2.79004 3.71206 2.81742 3.70284 2.85574L3.35538 4.17418C3.34745 4.20887 3.31956 4.2366 3.28503 4.24418L1.96643 4.59359C1.92776 4.60117 1.90057 4.63586 1.90057 4.67516C1.90057 4.71516 1.9278 4.74914 1.96643 4.75672L3.28503 5.10613C3.31956 5.1134 3.34745 5.14148 3.35538 5.17613L3.70284 6.49457C3.71206 6.5332 3.74612 6.56027 3.78573 6.56027C3.82538 6.56027 3.8594 6.53316 3.86862 6.49457L4.21639 5.17613C4.22382 5.14148 4.2519 5.1134 4.28639 5.10613Z" fill="white"/>
</svg>
