<?xml version="1.0" encoding="UTF-8"?>
<svg version="1.1" xmlns="http://www.w3.org/2000/svg" width="55" height="56">
<path d="M0 0 C2.5625 1.5625 2.5625 1.5625 4 3 C4.556875 2.71125 5.11375 2.4225 5.6875 2.125 C6.450625 1.75375 7.21375 1.3825 8 1 C9.0828125 0.4121875 9.0828125 0.4121875 10.1875 -0.1875 C14.28725055 -1.37187238 17.88094912 -1.03910721 22 0 C25.57735296 2.20730289 27.41840589 4.15006697 29 8 C29.76343833 14.00835878 29.29161902 18.78826988 26 24 C25.34 23.67 24.68 23.34 24 23 C23.26924352 20.6859378 22.59861742 18.35171131 22 16 C21.34 16 20.68 16 20 16 C19.731875 16.928125 19.46375 17.85625 19.1875 18.8125 C18.08851629 21.76240366 17.37581439 23.05615186 15 25 C14.505 23.02 14.505 23.02 14 21 C13.54625 21.495 13.0925 21.99 12.625 22.5 C11 24 11 24 9 24 C8.80664062 23.00097656 8.61328125 22.00195312 8.4140625 20.97265625 C8.15367188 19.68230469 7.89328125 18.39195313 7.625 17.0625 C7.36976562 15.77472656 7.11453125 14.48695312 6.8515625 13.16015625 C6.57054688 12.11730469 6.28953125 11.07445312 6 10 C5.34 9.67 4.68 9.34 4 9 C3.87882812 9.68707031 3.75765625 10.37414063 3.6328125 11.08203125 C3.46523438 11.98308594 3.29765625 12.88414063 3.125 13.8125 C2.96257813 14.70582031 2.80015625 15.59914063 2.6328125 16.51953125 C2 19 2 19 0 22 C-1.32 20.35 -2.64 18.7 -4 17 C-4.99 17.66 -5.98 18.32 -7 19 C-9 13.25 -9 13.25 -9 11 C-9.66 11 -10.32 11 -11 11 C-11.99 14.96 -12.98 18.92 -14 23 C-14.99 23 -15.98 23 -17 23 C-19.81293056 18.20676632 -19.62722155 13.40978585 -19 8 C-17.22696952 4.18116511 -15.70132149 2.50560386 -12.3125 0.0625 C-7.94581276 -1.33813553 -4.42135991 -1.13260643 0 0 Z " fill="#00A7B4" transform="translate(23,7)"/>
<path d="M0 0 C0.66 0 1.32 0 2 0 C4.29612756 9.41002278 4.29612756 9.41002278 4 14 C5.70840281 12.36587557 6.93453047 11.13093906 8 9 C8.66 9 9.32 9 10 9 C10.33 9.66 10.66 10.32 11 11 C11.66 11 12.32 11 13 11 C13.99 8.69 14.98 6.38 16 4 C18.2477975 6.05233685 19.0022242 7.00667261 20 10 C16.63699871 14.80428755 12.51850025 18.43285713 7.9375 22.0625 C6.93589844 22.85785156 5.93429688 23.65320313 4.90234375 24.47265625 C2 26 2 26 -0.5234375 25.515625 C-3.39937158 23.75558963 -5.96373305 21.83807905 -8.5625 19.6875 C-9.95662109 18.54861328 -9.95662109 18.54861328 -11.37890625 17.38671875 C-13.95526305 15.04073663 -16.12191656 12.9400121 -18 10 C-17.734375 7.76171875 -17.734375 7.76171875 -16.75 5.6875 C-16.27820313 4.64142578 -16.27820313 4.64142578 -15.796875 3.57421875 C-15.53390625 3.05472656 -15.2709375 2.53523438 -15 2 C-12.48916886 3.25541557 -12.12874554 4.50063488 -11 7 C-10.34 6.01 -9.68 5.02 -9 4 C-6 5 -6 5 -4.9375 7 C-4.628125 7.66 -4.31875 8.32 -4 9 C-3.34 9.33 -2.68 9.66 -2 10 C-1.34 6.7 -0.68 3.4 0 0 Z " fill="#00A7B4" transform="translate(27,24)"/>
</svg>
